<svg id="Layer_1" data-name="Layer 1" xmlns="http://www.w3.org/2000/svg" viewBox="0 0 309.33 98.77"><title>ng_2flush_blackyellow_rgb (1)</title><path d="M37.33,42.83H32.1c-6.86-9.68-13.66-19.31-20.45-30.2H11.59v30.2H5.81V0.73H11c6.86,9.62,13.66,19.19,20.39,30h0.12v-30h5.78V42.83Z"/><path d="M51,26.17C52.73,20.64,54.41,15.52,55.92,9H56c1.68,6.5,3.19,11.62,4.75,17.15H51ZM53.81,0.73L39.26,42.83h6.26l3.67-11.49H61.87l3.31,11.49h8.06L59.83,0.73h-6Z"/><path d="M80,42.83V6.37H69V0.73H98.33V6.37H87.26V42.83H80Z"/><path d="M100.68,42.83V0.73h7.16V42.83h-7.16Z"/><path d="M130.09,37.54c-7.52,0-10.17-8.31-10.17-16.36,0-7.76,3-15.16,10.17-15.16s10.16,7.4,10.16,15.16C140.26,29.23,137.61,37.54,130.09,37.54Zm0,6c11,0,17.87-9.8,17.87-22.37C148,9.38,140.38,0,130.09,0s-17.87,9.38-17.87,21.18C112.23,33.75,119.08,43.55,130.09,43.55Z"/><path d="M183.87,42.83h-5.23c-6.86-9.68-13.66-19.31-20.45-30.2h-0.06v30.2h-5.77V0.73h5.24c6.86,9.62,13.65,19.19,20.39,30h0.12v-30h5.77V42.83Z"/><path d="M197.58,26.17C199.27,20.64,201,15.52,202.46,9h0.12c1.69,6.5,3.19,11.62,4.75,17.15h-9.75Zm2.77-25.44L185.79,42.83h6.26l3.67-11.49h12.69l3.31,11.49h8.06L206.37,0.73h-6Z"/><path d="M221.89,0.73H229V37.18H243.3v5.65H221.89V0.73Z"/><path d="M32.89,78.06V95.44a33.11,33.11,0,0,1-12,2.59C8.53,98,.71,88.41.71,76c0-11.49,7.82-21.53,20.45-21.53a18,18,0,0,1,10.23,3.25l-2.35,5a15.65,15.65,0,0,0-7.7-2.22c-7.7,0-12.94,6.08-12.94,15.64,0,10,6,15.88,12.21,15.88a10.63,10.63,0,0,0,5.05-1V78.06h7.22Z"/><path d="M58.7,60.86h-12V72.41H58.46v5.65H46.66v13.6h14.2v5.66H39.45V55.2H58.7v5.66Z"/><path d="M81,92c-7.52,0-10.17-8.3-10.17-16.36,0-7.76,3-15.16,10.17-15.16s10.17,7.4,10.17,15.16C91.12,83.72,88.47,92,81,92Zm0,6c11,0,17.87-9.8,17.87-22.37,0-11.79-7.58-21.18-17.87-21.18S63.09,63.86,63.09,75.65C63.09,88.22,69.95,98,81,98Z"/><path d="M133.47,78.06V95.44a33.11,33.11,0,0,1-12,2.59c-12.39,0-20.21-9.62-20.21-22,0-11.49,7.82-21.53,20.46-21.53A18,18,0,0,1,132,57.73l-2.35,5a15.64,15.64,0,0,0-7.7-2.22c-7.7,0-12.93,6.08-12.93,15.64,0,10,6,15.88,12.21,15.88a10.63,10.63,0,0,0,5.05-1V78.06h7.22Z"/><path d="M147.31,60.86h3.19c4.27,0,6.67,2.46,6.67,6.79,0,5.65-3.43,8.18-6.86,8.36-0.72.06-2.4,0.12-3,.19V60.86Zm18.29,36.45-8.48-17.45a14.16,14.16,0,0,0,7.28-12.51c0-8.19-5-12.16-13.05-12.16H140.09V97.31h7.22V81.43h3.25l6.8,15.88h8.24Z"/><path d="M177.5,80.65c1.68-5.53,3.37-10.65,4.87-17.14h0.12c1.69,6.49,3.19,11.61,4.76,17.14H177.5Zm2.77-25.45L165.71,97.31H172l3.67-11.49h12.69l3.31,11.49h8.06L186.29,55.2h-6Z"/><path d="M213.24,55.2H202V97.31h7.22V81.43h3.25c8.6,0,13.84-7,13.84-14.07C226.29,59.17,221.3,55.2,213.24,55.2Zm-1,20.81c-0.74.06-2.5,0.12-3,.17V60.86h3.25c4.21,0,6.62,2.46,6.62,6.79C219.07,73.31,215.64,75.83,212.22,76Z"/><path d="M259.74,97.31h-7.22V77h-15V97.31h-7.16V55.2h7.16V71.38h15V55.32h7.22v42Z"/><path d="M266.66,97.31V55.2h7.16V97.31h-7.16Z"/><path d="M306.3,62.84a15.16,15.16,0,0,0-7.4-2.34c-7.34,0-12.69,6.08-12.69,15.64,0,10,5.9,15.88,12.87,15.88a13.61,13.61,0,0,0,7.22-2.11l2,5.24A18.33,18.33,0,0,1,298.78,98c-12.39,0-20.21-9.62-20.21-22,0-11.49,7.76-21.53,20.33-21.53a17.78,17.78,0,0,1,9.69,3.25Z"/></svg>
